<?xml version="1.0" encoding="utf-8"?>
<!-- Generator: Adobe Illustrator 25.2.0, SVG Export Plug-In . SVG Version: 6.00 Build 0)  -->
<svg version="1.1" id="Layer_1" xmlns="http://www.w3.org/2000/svg" xmlns:xlink="http://www.w3.org/1999/xlink" x="0px" y="0px"
	 viewBox="0 0 82.4 68.9" style="enable-background:new 0 0 82.4 68.9;" xml:space="preserve">
<style type="text/css">
	.st0{fill-rule:evenodd;clip-rule:evenodd;fill:#2D2D2D;}
	.st1{fill-rule:evenodd;clip-rule:evenodd;fill:#2275D4;}
</style>
<path class="st0" d="M34.3,0h14l34.1,68.9H0L34.3,0z M17.2,40h21.3l-6.1,24.4l31.9-27.5h-22l6.1-24.1L17.2,40z M39.1,36.9H25.3
	L43,21.5L39.1,36.9z M37.7,55.9L41.5,40h14.5L37.7,55.9z"/>
<polygon class="st1" points="17.2,40 38.5,40 32.4,64.4 64.3,36.9 42.3,36.9 48.4,12.8 "/>
<path class="st0" d="M39.1,36.9H25.3L43,21.5L39.1,36.9z M37.7,55.9L41.5,40h14.5L37.7,55.9z"/>
</svg>
